<svg width="256" height="256" viewBox="0 0 98 98" fill="none" xmlns="http://www.w3.org/2000/svg">
<path fill-rule="evenodd" clip-rule="evenodd" d="M59.2822 0.711426H57.8484L57.1243 1.949L20.6122 64.3582L0.666931 97.2111H6.51625L24.1666 68.1383H56.7822V79.9893V97.2105H61.7822V82.4893H61.805H61.829H61.8531H61.8774H61.9017H61.9261H61.9506H61.9752H61.9999H62.0247H62.0496H62.0745H62.0996H62.1247H62.15H62.1753H62.2007H62.2262H62.2518H62.2775H62.3033H62.3291H62.3551H62.3811H62.4072H62.4334H62.4597H62.4861H62.5126H62.5392H62.5658H62.5925H62.6193H62.6462H62.6732H62.7003H62.7274H62.7546H62.782H62.8094H62.8368H62.8644H62.892H62.9198H62.9476H62.9755H63.0034H63.0315H63.0596H63.0878H63.1161H63.1445H63.1729H63.2014H63.23H63.2587H63.2875H63.3163H63.3452H63.3742H63.4033H63.4324H63.4617H63.491H63.5203H63.5498H63.5793H63.6089H63.6386H63.6683H63.6981H63.728H63.758H63.788H63.8181H63.8483H63.8785H63.9089H63.9393H63.9697H64.0003H64.0309H64.0616H64.0923H64.1231H64.154H64.185H64.216H64.2471H64.2782H64.3095H64.3407H64.3721H64.4035H64.435H64.4666H64.4982H64.5299H64.5617H64.5935H64.6254H64.6573H64.6893H64.7214H64.7536H64.7858H64.818H64.8504H64.8828H64.9152H64.9477H64.9803H65.013H65.0457H65.0784H65.1113H65.1441H65.1771H65.2101H65.2431H65.2763H65.3094H65.3427H65.376H65.4093H65.4427H65.4762H65.5097H65.5433H65.5769H65.6106H65.6444H65.6782H65.712H65.7459H65.7799H65.8139H65.848H65.8821H65.9163H65.9505H65.9848H66.0191H66.0535H66.088H66.1225H66.157H66.1916H66.2263H66.2609H66.2957H66.3305H66.3653H66.4002H66.4352H66.4702H66.5052H66.5403H66.5754H66.6106H66.6458H66.6811H66.7164H66.7518H66.7872H66.8226H66.8581H66.8937H66.9293H66.9649H67.0006H67.0363H67.0721H67.1079H67.1438H67.1796H67.2156H67.2516H67.2876H67.3236H67.3597H67.3959H67.4321H67.4683H67.5046H67.5409H67.5772H67.6136H67.65H67.6865H67.723H67.7595H67.7961H67.8327H67.8693H67.906H67.9427H67.9795H68.0163H68.0531H68.0899H68.1268H68.1638H68.2007H68.2377H68.2748H68.3118H68.3489H68.386H68.4232H68.4604H68.4976H68.5349H68.5722H68.6095H68.6468H68.6842H68.7216H68.7591H68.7965H68.834H68.8716H68.9091H68.9467H68.9843H69.0219H69.0596H69.0973H69.135H69.1728H69.2105H69.2484H69.2862H69.324H69.3619H69.3998H69.4377H69.4757H69.5136H69.5516H69.5896H69.6277H69.6657H69.7038H69.7419H69.7801H69.8182H69.8564H69.8946H69.9328H69.971H70.0093H70.0476H70.0858H70.1242H70.1625H70.2008H70.2392H70.2776H70.316H70.3544H70.3928H70.4313H70.4698H70.5082H70.5467H70.5853H70.6238H70.6623H70.7009H70.7395H70.7781H70.8167H70.8553H70.8939H70.9325H70.9712H71.0099H71.0485H71.0872H71.1259H71.1646H71.2034H71.2421H71.2808H71.3196H71.3583H71.3971H71.4359H71.4747H71.5135H71.5523H71.5911H71.6299H71.6687H71.7076H71.7464H71.7853H71.8241H71.863H71.9018H71.9407H71.9796H72.0185H72.0573H72.0962H72.1351H72.174H72.2129H72.2518H72.2907H72.3296H72.3685H72.4074H72.4463H72.4852H72.5241H72.563C73.2542 82.4893 73.8967 82.3908 74.49 82.2126V97.2105H79.49V82.4893H79.5128H79.5369H79.561H79.5852H79.6095H79.6339H79.6585H79.6831H79.7077H79.7325H79.7574H79.7824H79.8074H79.8326H79.8578H79.8831H79.9086H79.9341H79.9597H79.9853H80.0111H80.037H80.0629H80.089H80.1151H80.1413H80.1676H80.194H80.2204H80.247H80.2736H80.3004H80.3272H80.3541H80.3811H80.4081H80.4353H80.4625H80.4898H80.5172H80.5447H80.5722H80.5999H80.6276H80.6554H80.6833H80.7113H80.7393H80.7674H80.7957H80.8239H80.8523H80.8808H80.9093H80.9379H80.9666H80.9953H81.0242H81.0531H81.0821H81.1111H81.1403H81.1695H81.1988H81.2282H81.2576H81.2871H81.3167H81.3464H81.3761H81.406H81.4358H81.4658H81.4958H81.526H81.5561H81.5864H81.6167H81.6471H81.6776H81.7081H81.7387H81.7694H81.8001H81.831H81.8618H81.8928H81.9238H81.9549H81.9861H82.0173H82.0486H82.0799H82.1114H82.1429H82.1744H82.2061H82.2378H82.2695H82.3013H82.3332H82.3652H82.3972H82.4293H82.4614H82.4936H82.5259H82.5582H82.5906H82.6231H82.6556H82.6882H82.7208H82.7535H82.7863H82.8191H82.852H82.8849H82.9179H82.951H82.9841H83.0173H83.0505H83.0838H83.1172H83.1506H83.184H83.2176H83.2511H83.2848H83.3185H83.3522H83.386H83.4199H83.4538H83.4877H83.5218H83.5558H83.59H83.6241H83.6584H83.6927H83.727H83.7614H83.7958H83.8303H83.8649H83.8995H83.9341H83.9688H84.0035H84.0383H84.0732H84.1081H84.143H84.178H84.213H84.2481H84.2833H84.3184H84.3537H84.3889H84.4243H84.4596H84.495H84.5305H84.566H84.6015H84.6371H84.6728H84.7085H84.7442H84.7799H84.8158H84.8516H84.8875H84.9234H84.9594H84.9954H85.0315H85.0676H85.1037H85.1399H85.1761H85.2124H85.2487H85.2851H85.3214H85.3579H85.3943H85.4308H85.4673H85.5039H85.5405H85.5772H85.6138H85.6506H85.6873H85.7241H85.7609H85.7978H85.8347H85.8716H85.9086H85.9456H85.9826H86.0197H86.0568H86.0939H86.1311H86.1683H86.2055H86.2427H86.28H86.3173H86.3547H86.3921H86.4295H86.4669H86.5044H86.5419H86.5794H86.617H86.6545H86.6922H86.7298H86.7675H86.8052H86.8429H86.8806H86.9184H86.9562H86.994H87.0319H87.0697H87.1076H87.1456H87.1835H87.2215H87.2595H87.2975H87.3355H87.3736H87.4117H87.4498H87.4879H87.5261H87.5642H87.6024H87.6406H87.6789H87.7171H87.7554H87.7937H87.832H87.8703H87.9087H87.947H87.9854H88.0238H88.0622H88.1007H88.1391H88.1776H88.2161H88.2546H88.2931H88.3316H88.3702H88.4087H88.4473H88.4859H88.5245H88.5631H88.6017H88.6404H88.679H88.7177H88.7564H88.7951H88.8338H88.8725H88.9112H88.9499H88.9887H89.0274H89.0662H89.105H89.1437H89.1825H89.2213H89.2601H89.2989H89.3378H89.3766H89.4154H89.4543H89.4931H89.532H89.5708H89.6097H89.6486H89.6874H89.7263H89.7652H89.8041H89.843H89.8819H89.9207H89.9596H89.9985H90.0374H90.0764H90.1153H90.1542H90.1931H90.232H90.2709C92.9922 82.4893 94.9606 80.9613 96.1338 79.0597C97.2661 77.2243 97.7512 74.9447 97.7512 72.8138C97.7512 70.6829 97.2661 68.4034 96.1338 66.568C94.9606 64.6664 92.9922 63.1383 90.2709 63.1383H79.49V48.4171H74.49V63.1383H73.0266H72.563H72.5241H72.4852H72.4463H72.4074H72.3685H72.3296H72.2907H72.2518H72.2129H72.174H72.1351H72.0962H72.0573H72.0185H71.9796H71.9407H71.9018H71.8722H71.863H71.8241H71.7853H71.7464H71.7076H71.6687H71.6299H71.5911H71.5632H71.5523H71.5168H71.5144H71.5135H71.5119H71.5096H71.5073H71.505H71.5028H71.5006H71.4985H71.4834H71.4747H71.4716H71.4669H71.4659H71.4649H71.464H71.4631H71.4623H71.4615H71.4608H71.4601H71.4595H71.459H71.4585H71.458H71.4576H71.4573H71.457H71.4567H71.4565H71.4564H71.4563H71.4359H71.3971H71.3583H71.3196H71.2808H71.2421H71.2034H71.1646H71.1259H71.0872H71.0485H71.0099H70.9712H70.9325H70.8939H70.8553H70.8167H70.7781H70.7395H70.7009H70.6623H70.6238H70.5853H70.5467H70.5082H70.4698H70.4313H70.3928H70.3544H70.316H70.2776H70.2392H70.2008H70.1625H70.1242H70.0858H70.0476H70.0093H69.971H69.9328H69.8946H69.8564H69.8182H69.7801H69.7419H69.7038H69.6657H69.6277H69.5896H69.5516H69.5136H69.4757H69.4377H69.3998H69.3619H69.324H69.2862H69.2484H69.2105H69.1728H69.135H69.0973H69.0596H69.0219H68.9843H68.9467H68.9091H68.8716H68.834H68.7965H68.7591H68.7216H68.6842H68.6468H68.6095H68.5722H68.5349H68.4976H68.4604H68.4232H68.386H68.3489H68.3118H68.2748H68.2377H68.2007H68.1638H68.1268H68.0899H68.0531H68.0163H67.9795H67.9427H67.906H67.8693H67.8327H67.7961H67.7595H67.723H67.6865H67.65H67.6136H67.5772H67.5409H67.5046H67.4683H67.4321H67.3959H67.3597H67.3236H67.2876H67.2516H67.2156H67.1796H67.1438H67.1079H67.0721H67.0363H67.0006H66.9649H66.9293H66.8937H66.8581H66.8226H66.7872H66.7518H66.7164H66.6811H66.6458H66.6106H66.5754H66.5403H66.5052H66.4702H66.4352H66.4002H66.3653H66.3305H66.2957H66.2609H66.2263H66.1916H66.157H66.1225H66.088H66.0535H66.0191H65.9848H65.9505H65.9163H65.8821H65.848H65.8139H65.7799H65.7459H65.712H65.6782H65.6444H65.6106H65.5769H65.5433H65.5097H65.4762H65.4427H65.4093H65.376H65.3427H65.3094H65.2763H65.2431H65.2101H65.1771H65.1441H65.1113H65.0784H65.0457H65.013H64.9803H64.9477H64.9152H64.8828H64.8504H64.818H64.7858H64.7536H64.7214H64.6893H64.6573H64.6254H64.5935H64.5617H64.5299H64.4982H64.4666H64.435H64.4035H64.3721H64.3407H64.3095H64.2782H64.2471H64.216H64.185H64.154H64.1231H64.0923H64.0616H64.0309H64.0003H63.9697H63.9393H63.9089H63.8785H63.8483H63.8181H63.788H63.758H63.728H63.6981H63.6683H63.6386H63.6089H63.5793H63.5498H63.5203H63.491H63.4617H63.4324H63.4033H63.3742H63.3452H63.3163H63.2875H63.2587H63.23H63.2014H63.1729H63.1445H63.1161H63.0878H63.0596H63.0315H63.0034H62.9755H62.9476H62.9198H62.892H62.8644H62.8368H62.8094H62.782H62.7546H62.7274H62.7003H62.6732H62.6462H62.6193H62.5925H62.5658H62.5392H62.5126H62.4861H62.4597H62.4334H62.4072H62.3811H62.3551H62.3291H62.3033H62.2775H62.2518H62.2262H62.2007H62.1753H62.15H62.1247H62.0996H62.0745H62.0496H62.0247H61.9999H61.9752H61.9506H61.9261H61.9017H61.8774H61.8531H61.829H61.805H61.7822V47.3294H61.805H61.829H61.8531H61.8774H61.9017H61.9261H61.9506H61.9752H61.9999H62.0247H62.0496H62.0745H62.0996H62.1247H62.15H62.1753H62.2007H62.2262H62.2518H62.2775H62.3033H62.3291H62.3551H62.3811H62.4072H62.4334H62.4597H62.4861H62.5126H62.5392H62.5658H62.5925H62.6193H62.6462H62.6732H62.7003H62.7274H62.7546H62.782H62.8094H62.8368H62.8644H62.892H62.9198H62.9476H62.9755H63.0034H63.0315H63.0596H63.0878H63.1161H63.1445H63.1729H63.2014H63.23H63.2587H63.2875H63.3163H63.3452H63.3742H63.4033H63.4324H63.4617H63.491H63.5203H63.5498H63.5793H63.6089H63.6386H63.6683H63.6981H63.728H63.758H63.788H63.8181H63.8483H63.8785H63.9089H63.9393H63.9697H64.0003H64.0309H64.0616H64.0923H64.1231H64.154H64.185H64.216H64.2471H64.2782H64.3095H64.3407H64.3721H64.4035H64.435H64.4666H64.4982H64.5299H64.5617H64.5935H64.6254H64.6573H64.6893H64.7214H64.7536H64.7858H64.818H64.8504H64.8828H64.9152H64.9477H64.9803H65.013H65.0457H65.0784H65.1113H65.1441H65.1771H65.2101H65.2431H65.2763H65.3094H65.3427H65.376H65.4093H65.4427H65.4762H65.5097H65.5433H65.5769H65.6106H65.6444H65.6782H65.712H65.7459H65.7799H65.8139H65.848H65.8821H65.9163H65.9505H65.9848H66.0191H66.0535H66.088H66.1225H66.157H66.1916H66.2263H66.2609H66.2957H66.3305H66.3653H66.4002H66.4352H66.4702H66.5052H66.5403H66.5754H66.6106H66.6458H66.6811H66.7164H66.7518H66.7872H66.8226H66.8581H66.8937H66.9293H66.9649H67.0006H67.0363H67.0721H67.1079H67.1438H67.1796H67.2156H67.2516H67.2876H67.3236H67.3597H67.3959H67.4321H67.4683H67.5046H67.5409H67.5772H67.6136H67.65H67.6865H67.723H67.7595H67.7961H67.8327H67.8693H67.906H67.9427H67.9795H68.0163H68.0531H68.0899H68.1268H68.1638H68.2007H68.2377H68.2748H68.3118H68.3489H68.386H68.4232H68.4604H68.4976H68.5349H68.5722H68.6095H68.6468H68.6842H68.7216H68.7591H68.7965H68.834H68.8716H68.9091H68.9467H68.9843H69.0219H69.0596H69.0973H69.135H69.1728H69.2105H69.2484H69.2862H69.324H69.3619H69.3998H69.4377H69.4757H69.5136H69.5516H69.5896H69.6277H69.6657H69.7038H69.7419H69.7801H69.8182H69.8564H69.8946H69.9328H69.971H70.0093H70.0476H70.0858H70.1242H70.1625H70.2008H70.2392H70.2776H70.316H70.3544H70.3928H70.4313H70.4698H70.5082H70.5467H70.5853H70.6238H70.6623H70.7009H70.7395H70.7781H70.8167H70.8553H70.8939H70.9325H70.9712H71.0099H71.0485H71.0872H71.1259H71.1646H71.2034H71.2421H71.2808H71.3196H71.3583H71.3971H71.4359H71.4747H71.5135H71.5523H71.5911H71.6299H71.6687H71.7076H71.7464H71.7853H71.8241H71.863H71.9018H71.9407H71.9796H72.0185H72.0573H72.0962H72.1351H72.174H72.2129H72.2518H72.2907H72.3296H72.3685H72.4074H72.4463H72.4852H72.5241H72.563C75.1872 47.3294 76.9777 45.5984 77.9955 43.8387C79.0219 42.0641 79.5455 39.8513 79.6265 37.7502C79.6473 37.2092 79.6396 36.6553 79.5988 36.0989L79.49 30.4543V11.822H74.49V28.2589C73.9007 28.0782 73.2583 27.9783 72.563 27.9783H72.5241H72.4852H72.4463H72.4074H72.3685H72.3296H72.2907H72.2518H72.2129H72.174H72.1351H72.0962H72.0573H72.0185H71.9796H71.9407H71.9018H71.863H71.8241H71.7853H71.7464H71.7076H71.6687H71.6299H71.5911H71.5523H71.5135H71.4747H71.4359H71.3971H71.3583H71.3196H71.2808H71.2421H71.2034H71.1646H71.1259H71.0872H71.0485H71.0099H70.9712H70.9325H70.8939H70.8553H70.8167H70.7781H70.7395H70.7009H70.6623H70.6238H70.5853H70.5467H70.5082H70.4698H70.4313H70.3928H70.3544H70.316H70.2776H70.2392H70.2008H70.1625H70.1242H70.0858H70.0476H70.0093H69.971H69.9328H69.8946H69.8564H69.8182H69.7801H69.7419H69.7038H69.6657H69.6277H69.5896H69.5516H69.5136H69.4757H69.4377H69.3998H69.3619H69.324H69.2862H69.2484H69.2105H69.1728H69.135H69.0973H69.0596H69.0219H68.9843H68.9467H68.9091H68.8716H68.834H68.7965H68.7591H68.7216H68.6842H68.6468H68.6095H68.5722H68.5349H68.4976H68.4604H68.4232H68.386H68.3489H68.3118H68.2748H68.2377H68.2007H68.1638H68.1268H68.0899H68.0531H68.0163H67.9795H67.9427H67.906H67.8693H67.8327H67.7961H67.7595H67.723H67.6865H67.65H67.6136H67.5772H67.5409H67.5046H67.4683H67.4321H67.3959H67.3597H67.3236H67.2876H67.2516H67.2156H67.1796H67.1438H67.1079H67.0721H67.0363H67.0006H66.9649H66.9293H66.8937H66.8581H66.8226H66.7872H66.7518H66.7164H66.6811H66.6458H66.6106H66.5754H66.5403H66.5052H66.4702H66.4352H66.4002H66.3653H66.3305H66.2957H66.2609H66.2263H66.1916H66.157H66.1225H66.088H66.0535H66.0191H65.9848H65.9505H65.9163H65.8821H65.848H65.8139H65.7799H65.7459H65.712H65.6782H65.6444H65.6106H65.5769H65.5433H65.5097H65.4762H65.4427H65.4093H65.376H65.3427H65.3094H65.2763H65.2431H65.2101H65.1771H65.1441H65.1113H65.0784H65.0457H65.013H64.9803H64.9477H64.9152H64.8828H64.8504H64.818H64.7858H64.7536H64.7214H64.6893H64.6573H64.6254H64.5935H64.5617H64.5299H64.4982H64.4666H64.435H64.4035H64.3721H64.3407H64.3095H64.2782H64.2471H64.216H64.185H64.154H64.1231H64.0923H64.0616H64.0309H64.0003H63.9697H63.9393H63.9089H63.8785H63.8483H63.8181H63.788H63.758H63.728H63.6981H63.6683H63.6386H63.6089H63.5793H63.5498H63.5203H63.491H63.4617H63.4324H63.4033H63.3742H63.3452H63.3163H63.2875H63.2587H63.23H63.2014H63.1729H63.1445H63.1161H63.0878H63.0596H63.0315H63.0034H62.9755H62.9476H62.9198H62.892H62.8644H62.8368H62.8094H62.782H62.7546H62.7274H62.7003H62.6732H62.6462H62.6193H62.5925H62.5658H62.5392H62.5126H62.4861H62.4597H62.4334H62.4072H62.3811H62.3551H62.3291H62.3033H62.2775H62.2518H62.2262H62.2007H62.1753H62.15H62.1247H62.0996H62.0745H62.0496H62.0247H61.9999H61.9752H61.9506H61.9261H61.9017H61.8774H61.8531H61.829H61.805H61.7822V17.1922H69.2428V12.1922H61.7822V5.71143H79.2035V0.711426H59.2822ZM56.7822 63.1383H27.1187L56.7822 12.4354V14.6922V30.4783V37.6539V44.8294V63.1383ZM61.7822 77.4893V68.1383H61.805H61.829H61.8531H61.8774H61.9017H61.9261H61.9506H61.9752H61.9999H62.0247H62.0496H62.0745H62.0996H62.1247H62.15H62.1753H62.2007H62.2262H62.2518H62.2775H62.3033H62.3291H62.3551H62.3811H62.4072H62.4334H62.4597H62.4861H62.5126H62.5392H62.5658H62.5925H62.6193H62.6462H62.6732H62.7003H62.7274H62.7546H62.782H62.8094H62.8368H62.8644H62.892H62.9198H62.9476H62.9755H63.0034H63.0315H63.0596H63.0878H63.1161H63.1445H63.1729H63.2014H63.23H63.2587H63.2875H63.3163H63.3452H63.3742H63.4033H63.4324H63.4617H63.491H63.5203H63.5498H63.5793H63.6089H63.6386H63.6683H63.6981H63.728H63.758H63.788H63.8181H63.8483H63.8785H63.9089H63.9393H63.9697H64.0003H64.0309H64.0616H64.0923H64.1231H64.154H64.185H64.216H64.2471H64.2782H64.3095H64.3407H64.3721H64.4035H64.435H64.4666H64.4982H64.5299H64.5617H64.5935H64.6254H64.6573H64.6893H64.7214H64.7536H64.7858H64.818H64.8504H64.8828H64.9152H64.9477H64.9803H65.013H65.0457H65.0784H65.1113H65.1441H65.1771H65.2101H65.2431H65.2763H65.3094H65.3427H65.376H65.4093H65.4427H65.4762H65.5097H65.5433H65.5769H65.6106H65.6444H65.6782H65.712H65.7459H65.7799H65.8139H65.848H65.8821H65.9163H65.9505H65.9848H66.0191H66.0535H66.088H66.1225H66.157H66.1916H66.2263H66.2609H66.2957H66.3305H66.3653H66.4002H66.4352H66.4702H66.5052H66.5403H66.5754H66.6106H66.6458H66.6811H66.7164H66.7518H66.7872H66.8226H66.8581H66.8937H66.9293H66.9649H67.0006H67.0363H67.0721H67.1079H67.1438H67.1796H67.2156H67.2516H67.2876H67.3236H67.3597H67.3959H67.4321H67.4683H67.5046H67.5409H67.5772H67.6136H67.65H67.6865H67.723H67.7595H67.7961H67.8327H67.8693H67.906H67.9427H67.9795H68.0163H68.0531H68.0899H68.1268H68.1638H68.2007H68.2377H68.2748H68.3118H68.3489H68.386H68.4232H68.4604H68.4976H68.5349H68.5722H68.6095H68.6468H68.6842H68.7216H68.7591H68.7965H68.834H68.8716H68.9091H68.9467H68.9843H69.0219H69.0596H69.0973H69.135H69.1728H69.2105H69.2484H69.2862H69.324H69.3619H69.3998H69.4377H69.4757H69.5136H69.5516H69.5896H69.6277H69.6657H69.7038H69.7419H69.7801H69.8182H69.8564H69.8946H69.9328H69.971H70.0093H70.0476H70.0858H70.1242H70.1625H70.2008H70.2392H70.2776H70.316H70.3544H70.3928H70.4313H70.4698H70.5082H70.5467H70.5853H70.6238H70.6623H70.7009H70.7395H70.7781H70.8167H70.8553H70.8939H70.9325H70.9712H71.0099H71.0485H71.0872H71.1259H71.1646H71.2034H71.2421H71.2808H71.3196H71.3583H71.3971H71.4359H71.4563H71.4564H71.4565H71.4567H71.457H71.4573H71.4576H71.458H71.4585H71.459H71.4595H71.4601H71.4608H71.4615H71.4623H71.4631H71.4716H71.4747H71.4834H71.5135H71.5168H71.5523H71.5632H71.5911H71.6299H71.6687H71.6935H71.7076H71.7133H71.7338H71.7464H71.755H71.777H71.7853H71.8241H71.863H71.8722H71.9018H71.9407H71.9796H72.0185H72.0573H72.0962H72.1351H72.174H72.2129H72.2518H72.2907H72.3296H72.3685H72.4074H72.4463H72.4852H72.5241H72.563C73.1619 68.1383 73.6837 68.4041 74.1706 69.1933C74.6984 70.0488 75.0434 71.357 75.0434 72.8138C75.0434 74.2707 74.6984 75.5789 74.1706 76.4343C73.6837 77.2235 73.1619 77.4893 72.563 77.4893H72.5241H72.4852H72.4463H72.4074H72.3685H72.3296H72.2907H72.2518H72.2129H72.174H72.1351H72.0962H72.0573H72.0185H71.9796H71.9407H71.9018H71.863H71.8241H71.7853H71.7464H71.7076H71.6687H71.6299H71.5911H71.5523H71.5135H71.4747H71.4359H71.3971H71.3583H71.3196H71.2808H71.2421H71.2034H71.1646H71.1259H71.0872H71.0485H71.0099H70.9712H70.9325H70.8939H70.8553H70.8167H70.7781H70.7395H70.7009H70.6623H70.6238H70.5853H70.5467H70.5082H70.4698H70.4313H70.3928H70.3544H70.316H70.2776H70.2392H70.2008H70.1625H70.1242H70.0858H70.0476H70.0093H69.971H69.9328H69.8946H69.8564H69.8182H69.7801H69.7419H69.7038H69.6657H69.6277H69.5896H69.5516H69.5136H69.4757H69.4377H69.3998H69.3619H69.324H69.2862H69.2484H69.2105H69.1728H69.135H69.0973H69.0596H69.0219H68.9843H68.9467H68.9091H68.8716H68.834H68.7965H68.7591H68.7216H68.6842H68.6468H68.6095H68.5722H68.5349H68.4976H68.4604H68.4232H68.386H68.3489H68.3118H68.2748H68.2377H68.2007H68.1638H68.1268H68.0899H68.0531H68.0163H67.9795H67.9427H67.906H67.8693H67.8327H67.7961H67.7595H67.723H67.6865H67.65H67.6136H67.5772H67.5409H67.5046H67.4683H67.4321H67.3959H67.3597H67.3236H67.2876H67.2516H67.2156H67.1796H67.1438H67.1079H67.0721H67.0363H67.0006H66.9649H66.9293H66.8937H66.8581H66.8226H66.7872H66.7518H66.7164H66.6811H66.6458H66.6106H66.5754H66.5403H66.5052H66.4702H66.4352H66.4002H66.3653H66.3305H66.2957H66.2609H66.2263H66.1916H66.157H66.1225H66.088H66.0535H66.0191H65.9848H65.9505H65.9163H65.8821H65.848H65.8139H65.7799H65.7459H65.712H65.6782H65.6444H65.6106H65.5769H65.5433H65.5097H65.4762H65.4427H65.4093H65.376H65.3427H65.3094H65.2763H65.2431H65.2101H65.1771H65.1441H65.1113H65.0784H65.0457H65.013H64.9803H64.9477H64.9152H64.8828H64.8504H64.818H64.7858H64.7536H64.7214H64.6893H64.6573H64.6254H64.5935H64.5617H64.5299H64.4982H64.4666H64.435H64.4035H64.3721H64.3407H64.3095H64.2782H64.2471H64.216H64.185H64.154H64.1231H64.0923H64.0616H64.0309H64.0003H63.9697H63.9393H63.9089H63.8785H63.8483H63.8181H63.788H63.758H63.728H63.6981H63.6683H63.6386H63.6089H63.5793H63.5498H63.5203H63.491H63.4617H63.4324H63.4033H63.3742H63.3452H63.3163H63.2875H63.2587H63.23H63.2014H63.1729H63.1445H63.1161H63.0878H63.0596H63.0315H63.0034H62.9755H62.9476H62.9198H62.892H62.8644H62.8368H62.8094H62.782H62.7546H62.7274H62.7003H62.6732H62.6462H62.6193H62.5925H62.5658H62.5392H62.5126H62.4861H62.4597H62.4334H62.4072H62.3811H62.3551H62.3291H62.3033H62.2775H62.2518H62.2262H62.2007H62.1753H62.15H62.1247H62.0996H62.0745H62.0496H62.0247H61.9999H61.9752H61.9506H61.9261H61.9017H61.8774H61.8531H61.829H61.805H61.7822ZM80.0434 72.8138C80.0434 71.2576 79.7847 69.6222 79.2041 68.1383H90.2709C90.8698 68.1383 91.3916 68.4041 91.8785 69.1933C92.4063 70.0488 92.7512 71.357 92.7512 72.8138C92.7512 74.2707 92.4063 75.5789 91.8785 76.4343C91.3916 77.2235 90.8698 77.4893 90.2709 77.4893H90.232H90.1931H90.1542H90.1153H90.0764H90.0374H89.9985H89.9596H89.9207H89.8819H89.843H89.8041H89.7652H89.7263H89.6874H89.6486H89.6097H89.5708H89.532H89.4931H89.4543H89.4154H89.3766H89.3378H89.2989H89.2601H89.2213H89.1825H89.1437H89.105H89.0662H89.0274H88.9887H88.9499H88.9112H88.8725H88.8338H88.7951H88.7564H88.7177H88.679H88.6404H88.6017H88.5631H88.5245H88.4859H88.4473H88.4087H88.3702H88.3316H88.2931H88.2546H88.2161H88.1776H88.1391H88.1007H88.0622H88.0238H87.9854H87.947H87.9087H87.8703H87.832H87.7937H87.7554H87.7171H87.6789H87.6406H87.6024H87.5642H87.5261H87.4879H87.4498H87.4117H87.3736H87.3355H87.2975H87.2595H87.2215H87.1835H87.1456H87.1076H87.0697H87.0319H86.994H86.9562H86.9184H86.8806H86.8429H86.8052H86.7675H86.7298H86.6922H86.6545H86.617H86.5794H86.5419H86.5044H86.4669H86.4295H86.3921H86.3547H86.3173H86.28H86.2427H86.2055H86.1683H86.1311H86.0939H86.0568H86.0197H85.9826H85.9456H85.9086H85.8716H85.8347H85.7978H85.7609H85.7241H85.6873H85.6506H85.6138H85.5772H85.5405H85.5039H85.4673H85.4308H85.3943H85.3579H85.3214H85.2851H85.2487H85.2124H85.1761H85.1399H85.1037H85.0676H85.0315H84.9954H84.9594H84.9234H84.8875H84.8516H84.8158H84.7799H84.7442H84.7085H84.6728H84.6371H84.6015H84.566H84.5305H84.495H84.4596H84.4243H84.3889H84.3537H84.3184H84.2833H84.2481H84.213H84.178H84.143H84.1081H84.0732H84.0383H84.0035H83.9688H83.9341H83.8995H83.8649H83.8303H83.7958H83.7614H83.727H83.6927H83.6584H83.6241H83.59H83.5558H83.5218H83.4877H83.4538H83.4199H83.386H83.3522H83.3185H83.2848H83.2511H83.2176H83.184H83.1506H83.1172H83.0838H83.0505H83.0173H82.9841H82.951H82.9179H82.8849H82.852H82.8191H82.7863H82.7535H82.7208H82.6882H82.6556H82.6231H82.5906H82.5582H82.5259H82.4936H82.4614H82.4293H82.3972H82.3652H82.3332H82.3013H82.2695H82.2378H82.2061H82.1744H82.1429H82.1114H82.0799H82.0486H82.0173H81.9861H81.9549H81.9238H81.8928H81.8618H81.831H81.8001H81.7694H81.7387H81.7081H81.6776H81.6471H81.6167H81.5864H81.5561H81.526H81.4958H81.4658H81.4358H81.406H81.3761H81.3464H81.3167H81.2871H81.2576H81.2282H81.1988H81.1695H81.1403H81.1111H81.0821H81.0531H81.0242H80.9953H80.9666H80.9379H80.9093H80.8808H80.8523H80.8239H80.7957H80.7674H80.7393H80.7113H80.6833H80.6554H80.6276H80.5999H80.5722H80.5447H80.5172H80.4898H80.4625H80.4353H80.4081H80.3811H80.3541H80.3272H80.3004H80.2736H80.247H80.2204H80.194H80.1676H80.1413H80.1151H80.089H80.0629H80.037H80.0111H79.9853H79.9597H79.9341H79.9086H79.8831H79.8578H79.8326H79.8074H79.7824H79.7574H79.7325H79.7077H79.6831H79.6585H79.6339H79.6095H79.5852H79.561H79.5369H79.5128H79.4889H79.465H79.4413H79.4176H79.394H79.3706H79.3472H79.3239H79.3007H79.2776H79.2546H79.2318H79.209H79.2041C79.7847 76.0055 80.0434 74.37 80.0434 72.8138ZM61.805 42.3294H61.7822V37.6539V32.9783H61.805H61.829H61.8531H61.8774H61.9017H61.9261H61.9506H61.9752H61.9999H62.0247H62.0496H62.0745H62.0996H62.1247H62.15H62.1753H62.2007H62.2262H62.2518H62.2775H62.3033H62.3291H62.3551H62.3811H62.4072H62.4334H62.4597H62.4861H62.5126H62.5392H62.5658H62.5925H62.6193H62.6462H62.6732H62.7003H62.7274H62.7546H62.782H62.8094H62.8368H62.8644H62.892H62.9198H62.9476H62.9755H63.0034H63.0315H63.0596H63.0878H63.1161H63.1445H63.1729H63.2014H63.23H63.2587H63.2875H63.3163H63.3452H63.3742H63.4033H63.4324H63.4617H63.491H63.5203H63.5498H63.5793H63.6089H63.6386H63.6683H63.6981H63.728H63.758H63.788H63.8181H63.8483H63.8785H63.9089H63.9393H63.9697H64.0003H64.0309H64.0616H64.0923H64.1231H64.154H64.185H64.216H64.2471H64.2782H64.3095H64.3407H64.3721H64.4035H64.435H64.4666H64.4982H64.5299H64.5617H64.5935H64.6254H64.6573H64.6893H64.7214H64.7536H64.7858H64.818H64.8504H64.8828H64.9152H64.9477H64.9803H65.013H65.0457H65.0784H65.1113H65.1441H65.1771H65.2101H65.2431H65.2763H65.3094H65.3427H65.376H65.4093H65.4427H65.4762H65.5097H65.5433H65.5769H65.6106H65.6444H65.6782H65.712H65.7459H65.7799H65.8139H65.848H65.8821H65.9163H65.9505H65.9848H66.0191H66.0535H66.088H66.1225H66.157H66.1916H66.2263H66.2609H66.2957H66.3305H66.3653H66.4002H66.4352H66.4702H66.5052H66.5403H66.5754H66.6106H66.6458H66.6811H66.7164H66.7518H66.7872H66.8226H66.8581H66.8937H66.9293H66.9649H67.0006H67.0363H67.0721H67.1079H67.1438H67.1796H67.2156H67.2516H67.2876H67.3236H67.3597H67.3959H67.4321H67.4683H67.5046H67.5409H67.5772H67.6136H67.65H67.6865H67.723H67.7595H67.7961H67.8327H67.8693H67.906H67.9427H67.9795H68.0163H68.0531H68.0899H68.1268H68.1638H68.2007H68.2377H68.2748H68.3118H68.3489H68.386H68.4232H68.4604H68.4976H68.5349H68.5722H68.6095H68.6468H68.6842H68.7216H68.7591H68.7965H68.834H68.8716H68.9091H68.9467H68.9843H69.0219H69.0596H69.0973H69.135H69.1728H69.2105H69.2484H69.2862H69.324H69.3619H69.3998H69.4377H69.4757H69.5136H69.5516H69.5896H69.6277H69.6657H69.7038H69.7419H69.7801H69.8182H69.8564H69.8946H69.9328H69.971H70.0093H70.0476H70.0858H70.1242H70.1625H70.2008H70.2392H70.2776H70.316H70.3544H70.3928H70.4313H70.4698H70.5082H70.5467H70.5853H70.6238H70.6623H70.7009H70.7395H70.7781H70.8167H70.8553H70.8939H70.9325H70.9712H71.0099H71.0485H71.0872H71.1259H71.1646H71.2034H71.2421H71.2808H71.3196H71.3583H71.3971H71.4359H71.4747H71.5135H71.5523H71.5911H71.6299H71.6687H71.7076H71.7464H71.7853H71.8241H71.863H71.9018H71.9407H71.9796H72.0185H72.0573H72.0962H72.1351H72.174H72.2129H72.2518H72.2907H72.3296H72.3685H72.4074H72.4463H72.4852H72.5241H72.563C73.1262 32.9783 73.5526 33.2026 73.9546 33.93C74.2825 34.5233 74.5173 35.3613 74.6026 36.3403L74.6273 37.6259C74.5613 39.0863 74.1891 40.4332 73.6673 41.3353C73.1287 42.2664 72.7057 42.3294 72.563 42.3294H72.5241H72.4852H72.4463H72.4074H72.3685H72.3296H72.2907H72.2518H72.2129H72.174H72.1351H72.0962H72.0573H72.0185H71.9796H71.9407H71.9018H71.863H71.8241H71.7853H71.7464H71.7076H71.6687H71.6299H71.5911H71.5523H71.5135H71.4747H71.4359H71.3971H71.3583H71.3196H71.2808H71.2421H71.2034H71.1646H71.1259H71.0872H71.0485H71.0099H70.9712H70.9325H70.8939H70.8553H70.8167H70.7781H70.7395H70.7009H70.6623H70.6238H70.5853H70.5467H70.5082H70.4698H70.4313H70.3928H70.3544H70.316H70.2776H70.2392H70.2008H70.1625H70.1242H70.0858H70.0476H70.0093H69.971H69.9328H69.8946H69.8564H69.8182H69.7801H69.7419H69.7038H69.6657H69.6277H69.5896H69.5516H69.5136H69.4757H69.4377H69.3998H69.3619H69.324H69.2862H69.2484H69.2105H69.1728H69.135H69.0973H69.0596H69.0219H68.9843H68.9467H68.9091H68.8716H68.834H68.7965H68.7591H68.7216H68.6842H68.6468H68.6095H68.5722H68.5349H68.4976H68.4604H68.4232H68.386H68.3489H68.3118H68.2748H68.2377H68.2007H68.1638H68.1268H68.0899H68.0531H68.0163H67.9795H67.9427H67.906H67.8693H67.8327H67.7961H67.7595H67.723H67.6865H67.65H67.6136H67.5772H67.5409H67.5046H67.4683H67.4321H67.3959H67.3597H67.3236H67.2876H67.2516H67.2156H67.1796H67.1438H67.1079H67.0721H67.0363H67.0006H66.9649H66.9293H66.8937H66.8581H66.8226H66.7872H66.7518H66.7164H66.6811H66.6458H66.6106H66.5754H66.5403H66.5052H66.4702H66.4352H66.4002H66.3653H66.3305H66.2957H66.2609H66.2263H66.1916H66.157H66.1225H66.088H66.0535H66.0191H65.9848H65.9505H65.9163H65.8821H65.848H65.8139H65.7799H65.7459H65.712H65.6782H65.6444H65.6106H65.5769H65.5433H65.5097H65.4762H65.4427H65.4093H65.376H65.3427H65.3094H65.2763H65.2431H65.2101H65.1771H65.1441H65.1113H65.0784H65.0457H65.013H64.9803H64.9477H64.9152H64.8828H64.8504H64.818H64.7858H64.7536H64.7214H64.6893H64.6573H64.6254H64.5935H64.5617H64.5299H64.4982H64.4666H64.435H64.4035H64.3721H64.3407H64.3095H64.2782H64.2471H64.216H64.185H64.154H64.1231H64.0923H64.0616H64.0309H64.0003H63.9697H63.9393H63.9089H63.8785H63.8483H63.8181H63.788H63.758H63.728H63.6981H63.6683H63.6386H63.6089H63.5793H63.5498H63.5203H63.491H63.4617H63.4324H63.4033H63.3742H63.3452H63.3163H63.2875H63.2587H63.23H63.2014H63.1729H63.1445H63.1161H63.0878H63.0596H63.0315H63.0034H62.9755H62.9476H62.9198H62.892H62.8644H62.8368H62.8094H62.782H62.7546H62.7274H62.7003H62.6732H62.6462H62.6193H62.5925H62.5658H62.5392H62.5126H62.4861H62.4597H62.4334H62.4072H62.3811H62.3551H62.3291H62.3033H62.2775H62.2518H62.2262H62.2007H62.1753H62.15H62.1247H62.0996H62.0745H62.0496H62.0247H61.9999H61.9752H61.9506H61.9261H61.9017H61.8774H61.8531H61.829H61.805Z" fill="black"/>
</svg>
